<svg width="1115" height="487" viewBox="0 0 1115 487" fill="none" xmlns="http://www.w3.org/2000/svg">
<path d="M114.638 409.08C95.0364 409.08 78.1875 405.942 64.0917 399.665C49.9959 393.171 38.9835 383.323 31.0547 370.12C23.1258 356.7 18.831 340.034 18.1702 320.121C17.95 310.814 17.8398 301.615 17.8398 292.525C17.8398 283.434 17.95 274.127 18.1702 264.603C18.831 244.907 23.2359 228.457 31.385 215.254C39.5342 202.051 50.6566 192.094 64.7524 185.385C79.0685 178.675 95.6971 175.32 114.638 175.32C133.58 175.32 150.208 178.675 164.524 185.385C178.84 192.094 190.073 202.051 198.222 215.254C206.371 228.457 210.776 244.907 211.437 264.603C211.877 274.127 212.098 283.434 212.098 292.525C212.098 301.615 211.877 310.814 211.437 320.121C210.776 340.034 206.481 356.7 198.552 370.12C190.624 383.323 179.501 393.171 165.185 399.665C151.089 405.942 134.24 409.08 114.638 409.08ZM114.638 371.743C128.954 371.743 140.627 367.631 149.658 359.406C158.688 350.965 163.533 337.329 164.194 318.498C164.634 308.974 164.855 300.208 164.855 292.2C164.855 283.975 164.634 275.209 164.194 265.902C163.753 253.348 161.331 243.175 156.926 235.383C152.741 227.375 147.015 221.639 139.747 218.176C132.478 214.496 124.109 212.657 114.638 212.657C105.388 212.657 97.1287 214.496 89.8606 218.176C82.5924 221.639 76.7559 227.375 72.351 235.383C68.1663 243.175 65.8537 253.348 65.4132 265.902C65.1929 275.209 65.0828 283.975 65.0828 292.2C65.0828 300.208 65.1929 308.974 65.4132 318.498C66.0739 337.329 70.9193 350.965 79.9495 359.406C88.9796 367.631 100.543 371.743 114.638 371.743ZM309.33 409.08C293.472 409.08 279.486 406.158 267.373 400.314C255.479 394.47 246.119 386.029 239.291 374.99C232.684 363.735 229.05 350.207 228.389 334.407C228.169 331.16 228.059 326.939 228.059 321.745C228.059 316.334 228.169 311.896 228.389 308.433C229.05 292.633 232.684 279.213 239.291 268.175C246.119 256.92 255.479 248.37 267.373 242.526C279.486 236.682 293.472 233.76 309.33 233.76C323.426 233.76 335.429 235.708 345.34 239.604C355.251 243.5 363.4 248.37 369.788 254.214C376.175 260.058 380.91 266.227 383.993 272.72C387.297 278.997 389.059 284.733 389.279 289.927C389.5 292.308 388.729 294.256 386.967 295.771C385.425 297.07 383.553 297.719 381.35 297.719H352.278C350.075 297.719 348.313 297.178 346.992 296.096C345.891 295.014 344.79 293.39 343.688 291.226C340.385 282.568 335.98 276.508 330.473 273.045C325.188 269.365 318.36 267.525 309.99 267.525C298.978 267.525 290.168 270.988 283.561 277.915C277.174 284.624 273.76 295.338 273.319 310.057C272.879 318.282 272.879 325.857 273.319 332.783C273.76 347.718 277.174 358.54 283.561 365.25C290.168 371.96 298.978 375.315 309.99 375.315C318.58 375.315 325.518 373.583 330.804 370.12C336.09 366.44 340.385 360.272 343.688 351.614C344.79 349.45 345.891 347.826 346.992 346.744C348.313 345.662 350.075 345.121 352.278 345.121H381.35C383.553 345.121 385.425 345.878 386.967 347.393C388.729 348.692 389.5 350.532 389.279 352.913C389.059 356.809 387.958 361.246 385.976 366.224C384.214 370.986 381.24 375.964 377.056 381.159C373.091 386.137 368.026 390.79 361.859 395.119C355.692 399.232 348.203 402.587 339.393 405.184C330.804 407.781 320.783 409.08 309.33 409.08ZM459.743 405.833C457.32 405.833 455.338 405.076 453.797 403.561C452.475 402.046 451.814 400.206 451.814 398.041V271.421H397.964C395.541 271.421 393.559 270.664 392.017 269.149C390.696 267.634 390.035 265.794 390.035 263.629V244.799C390.035 242.634 390.696 240.794 392.017 239.279C393.559 237.764 395.541 237.007 397.964 237.007H547.952C550.375 237.007 552.357 237.764 553.899 239.279C555.44 240.794 556.211 242.634 556.211 244.799V263.629C556.211 265.794 555.44 267.634 553.899 269.149C552.357 270.664 550.375 271.421 547.952 271.421H494.432V398.041C494.432 400.206 493.661 402.046 492.12 403.561C490.578 405.076 488.706 405.833 486.503 405.833H459.743ZM574.142 467.52C571.94 467.52 570.068 466.762 568.526 465.247C566.984 463.732 566.213 461.892 566.213 459.728V244.799C566.213 242.634 566.984 240.794 568.526 239.279C570.068 237.764 571.94 237.007 574.142 237.007H600.241C602.664 237.007 604.536 237.764 605.858 239.279C607.4 240.794 608.17 242.634 608.17 244.799V257.785C613.456 250.859 620.394 245.123 628.984 240.578C637.573 236.033 648.255 233.76 661.03 233.76C672.703 233.76 682.834 235.6 691.424 239.279C700.013 242.959 707.171 248.262 712.898 255.188C718.624 261.898 723.029 269.906 726.113 279.213C729.196 288.52 730.958 298.802 731.398 310.057C731.619 313.736 731.729 317.524 731.729 321.42C731.729 325.316 731.619 329.212 731.398 333.108C731.178 343.93 729.526 353.995 726.443 363.302C723.359 372.393 718.844 380.401 712.898 387.327C707.171 394.037 700.013 399.34 691.424 403.236C682.834 407.132 672.703 409.08 661.03 409.08C649.136 409.08 639.005 407.024 630.636 402.911C622.266 398.582 615.439 392.955 610.153 386.029V459.728C610.153 461.892 609.382 463.732 607.84 465.247C606.519 466.762 604.646 467.52 602.224 467.52H574.142ZM648.806 374.341C658.277 374.341 665.655 372.393 670.941 368.497C676.227 364.384 679.971 359.081 682.173 352.588C684.596 346.095 686.028 338.952 686.468 331.16C686.909 324.667 686.909 318.173 686.468 311.68C686.028 303.888 684.596 296.745 682.173 290.252C679.971 283.759 676.227 278.564 670.941 274.668C665.655 270.556 658.277 268.499 648.806 268.499C639.776 268.499 632.398 270.556 626.671 274.668C621.165 278.78 617.09 284.083 614.447 290.577C612.025 296.854 610.593 303.347 610.153 310.057C609.932 313.953 609.822 318.065 609.822 322.394C609.822 326.723 609.932 330.944 610.153 335.056C610.373 341.549 611.915 347.826 614.778 353.887C617.641 359.731 621.826 364.601 627.332 368.497C632.838 372.393 639.996 374.341 648.806 374.341ZM828.282 409.08C810.663 409.08 795.796 406.05 783.682 399.989C771.789 393.929 762.649 385.379 756.262 374.341C750.095 363.302 746.571 350.424 745.69 335.705C745.47 331.809 745.359 327.048 745.359 321.42C745.359 315.792 745.47 311.031 745.69 307.135C746.571 292.2 750.205 279.322 756.592 268.499C763.199 257.461 772.45 248.911 784.343 242.851C796.457 236.79 811.103 233.76 828.282 233.76C845.462 233.76 859.998 236.79 871.891 242.851C884.005 248.911 893.255 257.461 899.642 268.499C906.25 279.322 909.994 292.2 910.875 307.135C911.095 311.031 911.205 315.792 911.205 321.42C911.205 327.048 911.095 331.809 910.875 335.705C909.994 350.424 906.36 363.302 899.973 374.341C893.806 385.379 884.666 393.929 872.552 399.989C860.659 406.05 845.902 409.08 828.282 409.08ZM828.282 376.938C839.955 376.938 848.986 373.367 855.373 366.224C861.76 358.865 865.284 348.151 865.945 334.082C866.165 330.835 866.275 326.615 866.275 321.42C866.275 316.225 866.165 312.005 865.945 308.758C865.284 294.906 861.76 284.3 855.373 276.941C848.986 269.582 839.955 265.902 828.282 265.902C816.609 265.902 807.579 269.582 801.192 276.941C794.805 284.3 791.281 294.906 790.62 308.758C790.4 312.005 790.29 316.225 790.29 321.42C790.29 326.615 790.4 330.835 790.62 334.082C791.281 348.151 794.805 358.865 801.192 366.224C807.579 373.367 816.609 376.938 828.282 376.938ZM939.219 405.833C937.017 405.833 935.145 405.076 933.603 403.561C932.061 402.046 931.29 400.206 931.29 398.041V244.799C931.29 242.634 932.061 240.794 933.603 239.279C935.145 237.764 937.017 237.007 939.219 237.007H1012.56C1035.91 237.007 1053.2 241.227 1064.43 249.669C1075.66 258.11 1081.28 269.473 1081.28 283.759C1081.28 292.849 1079.52 299.884 1075.99 304.862C1072.47 309.84 1067.62 314.169 1061.46 317.849C1069.17 321.312 1075.11 326.615 1079.3 333.757C1083.7 340.684 1085.9 348.367 1085.9 356.809C1085.9 372.393 1079.96 384.514 1068.06 393.171C1056.39 401.613 1039.1 405.833 1016.2 405.833H939.219ZM973.578 376.613H1013.22C1022.03 376.613 1029.08 374.99 1034.37 371.743C1039.65 368.497 1042.29 363.41 1042.29 356.484C1042.29 349.341 1039.87 344.147 1035.03 340.9C1030.18 337.653 1022.91 336.03 1013.22 336.03H973.578V376.613ZM973.578 305.836H1011.9C1020.71 305.836 1027.65 304.104 1032.71 300.641C1037.78 296.962 1040.31 291.659 1040.31 284.733C1040.31 277.806 1037.67 273.045 1032.38 270.447C1027.32 267.634 1020.49 266.227 1011.9 266.227H973.578V305.836Z" fill="#0B132A"/>
<path d="M654.794 148.806C653.803 148.806 652.922 148.427 652.151 147.669C651.38 146.912 650.995 146.046 650.995 145.072V68.2882C650.995 67.206 651.38 66.2861 652.151 65.5285C652.922 64.771 653.858 64.3922 654.959 64.3922H668.669C669.881 64.3922 670.817 64.771 671.478 65.5285C672.248 66.2861 672.634 67.206 672.634 68.2882V132.41L666.852 128.352L712.278 66.9895C712.829 66.232 713.435 65.6368 714.095 65.2039C714.756 64.6628 715.637 64.3922 716.738 64.3922H729.292C730.284 64.3922 731.165 64.771 731.935 65.5285C732.706 66.1779 733.092 66.9895 733.092 67.9635V144.91C733.092 145.992 732.706 146.912 731.935 147.669C731.165 148.427 730.228 148.806 729.127 148.806H715.417C714.205 148.806 713.214 148.427 712.444 147.669C711.783 146.912 711.452 145.992 711.452 144.91V83.7099L717.564 84.5215L671.808 146.208C671.367 146.858 670.762 147.453 669.991 147.994C669.33 148.535 668.449 148.806 667.348 148.806H654.794ZM749.618 148.806C748.517 148.806 747.581 148.427 746.81 147.669C746.039 146.912 745.654 145.992 745.654 144.91V68.2882C745.654 67.206 746.039 66.2861 746.81 65.5285C747.581 64.771 748.517 64.3922 749.618 64.3922H763.164C764.265 64.3922 765.201 64.771 765.972 65.5285C766.743 66.2861 767.128 67.206 767.128 68.2882V97.3459H779.021L799.174 66.9895C799.614 66.232 800.165 65.6368 800.826 65.2039C801.597 64.6628 802.588 64.3922 803.799 64.3922H818.501C819.602 64.3922 820.483 64.6628 821.144 65.2039C821.804 65.745 822.135 66.4484 822.135 67.3142C822.135 67.6389 822.025 68.0177 821.804 68.4505C821.694 68.7752 821.529 69.0999 821.309 69.4245L797.522 104.976L824.778 143.773C825.328 144.423 825.604 145.126 825.604 145.884C825.604 146.749 825.273 147.453 824.612 147.994C823.952 148.535 823.126 148.806 822.135 148.806H805.451C804.35 148.806 803.414 148.589 802.643 148.156C801.982 147.723 801.376 147.128 800.826 146.371L779.021 114.553H767.128V144.91C767.128 145.992 766.743 146.912 765.972 147.669C765.201 148.427 764.265 148.806 763.164 148.806H749.618Z" fill="#0B132A"/>
<path d="M629.083 162.333L630.26 162.796C674.322 180.117 712.003 210.162 738.327 248.967C738.765 249.612 739.712 249.658 740.21 249.057L741.599 247.391C781.023 200.037 828.221 159.49 881.244 127.424L890.626 121.75" stroke="url(#paint0_linear_432_87)" stroke-width="30" stroke-linecap="round"/>
<defs>
<linearGradient id="paint0_linear_432_87" x1="624.845" y1="121.75" x2="911.592" y2="163.066" gradientUnits="userSpaceOnUse">
<stop stop-color="#F5560B"/>
<stop offset="1" stop-color="#F98703"/>
</linearGradient>
</defs>
</svg>
